<svg width="105" height="100" viewBox="0 0 105 100" fill="none" xmlns="http://www.w3.org/2000/svg">
<rect width="105" height="100" rx="17" fill="#001EE2"/>
<path d="M51.9823 69.96C52.5023 71.28 53.1023 72.24 53.7823 72.84C54.4623 73.44 55.1223 73.76 55.7623 73.8V75C53.3623 74.88 50.3223 74.82 46.6423 74.82C42.5623 74.82 39.5223 74.88 37.5223 75V73.8C39.0423 73.72 40.1223 73.54 40.7623 73.26C41.4023 72.94 41.7223 72.4 41.7223 71.64C41.7223 70.92 41.4823 69.96 41.0023 68.76L37.4023 58.92H24.3223L22.7623 63.06C21.6423 65.94 21.0823 68.16 21.0823 69.72C21.0823 71.2 21.5223 72.24 22.4023 72.84C23.3223 73.4 24.6623 73.72 26.4223 73.8V75C23.7023 74.88 21.2223 74.82 18.9823 74.82C17.1423 74.82 15.6223 74.88 14.4223 75V73.8C16.3823 73.44 18.1023 71.34 19.5823 67.5L33.2623 32.4C33.7023 32.44 34.4023 32.46 35.3623 32.46C36.3223 32.46 37.0023 32.44 37.4023 32.4L51.9823 69.96ZM36.9823 57.72L31.0423 41.52L24.8023 57.72H36.9823ZM88.3099 32.52C88.0299 35.92 87.8899 38.96 87.8899 41.64C87.8899 43.52 87.9499 45.04 88.0699 46.2H86.6899C85.8899 41.68 84.6899 38.5 83.0899 36.66C81.4899 34.82 79.2499 33.9 76.3699 33.9H74.3899C73.1499 33.9 72.2499 34 71.6899 34.2C71.1299 34.4 70.7499 34.8 70.5499 35.4C70.3499 35.96 70.2499 36.88 70.2499 38.16V53.28H72.3499C74.4699 53.28 76.0699 52.5 77.1499 50.94C78.2699 49.38 79.0499 47.52 79.4899 45.36H80.8699C80.7499 47.04 80.6899 48.92 80.6899 51V53.88C80.6899 55.92 80.8099 58.76 81.0499 62.4H79.6699C78.8299 57.12 76.3899 54.48 72.3499 54.48H70.2499V68.28C70.2499 69.88 70.4099 71.06 70.7299 71.82C71.0899 72.54 71.6899 73.02 72.5299 73.26C73.4099 73.5 74.7899 73.64 76.6699 73.68V75C71.7499 74.88 68.0899 74.82 65.6899 74.82C63.6899 74.82 61.1699 74.86 58.1299 74.94L56.2099 75V73.8C57.5299 73.72 58.4899 73.56 59.0899 73.32C59.7299 73.08 60.1499 72.62 60.3499 71.94C60.5899 71.26 60.7099 70.16 60.7099 68.64V38.88C60.7099 37.36 60.5899 36.26 60.3499 35.58C60.1499 34.9 59.7299 34.44 59.0899 34.2C58.4899 33.96 57.5299 33.8 56.2099 33.72V32.52C60.5299 32.64 67.0499 32.7 75.7699 32.7C81.6499 32.7 85.8299 32.64 88.3099 32.52Z" fill="white"/>
</svg>
