<svg width="93" height="93" viewBox="0 0 93 93" fill="none" xmlns="http://www.w3.org/2000/svg">
<rect width="93" height="93" rx="14" fill="#F5F6FA"/>
<g clip-path="url(#clip0_117_469)">
<path d="M64.1736 60.8586C64.1736 64.8079 55.1001 68.0054 43.8998 68.0054C32.6994 68.0054 23.626 64.8079 23.626 60.8586C23.626 56.9094 32.7049 53.7173 43.8998 53.7173C55.0947 53.7173 64.1736 56.9148 64.1736 60.8586Z" fill="#2C47D1"/>
<path d="M64.1736 60.0851C64.1736 64.029 55.1001 67.2265 43.8998 67.2265C32.6994 67.2265 23.626 64.029 23.626 60.0851C23.626 56.1413 32.7049 52.9384 43.8998 52.9384C55.0947 52.9384 64.1736 56.1413 64.1736 60.0851Z" fill="#1B66B5"/>
<path d="M55.8077 60.1559C55.8077 62.4764 50.4767 64.3558 43.9001 64.3558C37.3235 64.3558 31.998 62.4928 31.998 60.1559C31.998 57.819 37.3235 55.9615 43.9001 55.9615C50.4767 55.9615 55.8077 57.8408 55.8077 60.1559Z" fill="#2C47D1"/>
<path d="M63.2277 49.8987C62.6953 50.0403 62.1467 50.1117 61.5958 50.1112C61.438 50.1112 61.2857 50.1112 61.1334 50.1112C62.1555 47.7248 63.0027 45.267 63.6683 42.7574C65.3764 42.948 66.6982 43.8468 67.0409 45.176C67.5468 47.1043 65.8279 49.2287 63.2331 49.9151L63.2277 49.8987ZM69.8206 44.4515C69.2005 42.0819 67.1008 40.3879 64.3809 39.963C65.0826 36.7981 65.3438 34.5865 65.3438 34.5865L43.8623 34.0908H43.4652L21.9893 34.5865C21.9893 34.5865 25.1878 62.1768 40.1525 62.1768H47.1642C53.0228 62.1768 57.0754 57.9498 59.8442 52.8076C60.4256 52.9294 61.0181 52.9896 61.6121 52.9873C62.4035 52.9879 63.1916 52.8853 63.9566 52.6823C68.0908 51.5928 70.7236 47.9051 69.8206 44.4515Z" fill="#E55B2B"/>
<path d="M30.9541 36.406L50.1291 61.7738C50.1291 61.7738 61.7483 60.0852 65.3276 34.5376C65.3276 34.5376 52.7347 37.4464 30.9541 35.943" fill="#EA722F"/>
<path d="M43.6665 36.4059C31.2694 36.4059 23.4906 35.3165 22.4951 34.5593C23.4906 33.7749 31.2694 32.7073 43.6665 32.7073C56.0636 32.7073 63.8424 33.7967 64.8378 34.5593C63.8424 35.3383 56.0636 36.4059 43.6665 36.4059Z" fill="#BA4A51"/>
<path d="M43.6668 32.2715C31.6994 32.2715 22.0059 33.2956 22.0059 34.5593C22.0059 35.8231 31.7049 36.8417 43.6668 36.8417C55.6287 36.8417 65.3331 35.8177 65.3331 34.5593C65.3331 33.301 55.6341 32.2715 43.6668 32.2715ZM43.6668 33.143C54.0022 33.143 61.1119 33.8784 63.6577 34.5593C61.1119 35.2348 53.9805 35.9702 43.6668 35.9702C33.3531 35.9702 26.2271 35.2566 23.6813 34.5593C26.2271 33.8784 33.3531 33.143 43.6668 33.143Z" fill="#E55B2B"/>
<path d="M49.6991 11C49.6991 11 38.1288 16.0714 45.6465 23.7466C53.1642 31.4217 46.3809 34.445 44.4987 35.1858C44.4987 35.1858 51.6683 36.2044 52.2014 29.4008C52.7345 22.5972 42.9212 20.549 49.6991 11Z" fill="#F3C73C"/>
<path d="M39.8643 17.5259C39.8643 17.5259 31.498 21.181 36.9378 26.7154C42.3775 32.2498 37.4817 34.4341 36.1055 34.9625C36.1055 34.9625 41.2786 35.6979 41.6649 30.7899C42.0511 25.8819 34.9523 24.4166 39.8534 17.5259H39.8643Z" fill="#F3C73C"/>
</g>
<defs>
<clipPath id="clip0_117_469">
<rect width="48" height="57" fill="white" transform="translate(22 11)"/>
</clipPath>
</defs>
</svg>
