<svg width="93" height="93" viewBox="0 0 93 93" fill="none" xmlns="http://www.w3.org/2000/svg">
<rect width="93" height="93" rx="14" fill="#F5F6FA"/>
<g clip-path="url(#clip0_117_507)">
<path d="M42.7178 27.3688H36.3338H29.9438L22 61.4906L29.3235 67.2886H36.3338H43.3381L50.6616 61.4906L42.7178 27.3688Z" fill="#2C47D1"/>
<path d="M33.6415 29.4155L29.3232 67.2887H43.3379L39.0197 29.2091L33.6415 29.4155Z" fill="#1B66B5"/>
<path d="M44.3499 27.9291C44.3499 29.9227 40.7363 31.5329 36.3278 31.5329C31.9192 31.5329 28.3057 29.9227 28.3057 27.9291C28.3057 25.9354 31.9192 24.3252 36.3278 24.3252C40.7363 24.3252 44.3499 25.959 44.3499 27.9291Z" fill="#CA4B28"/>
<path d="M47.7165 22.2078C47.7165 26.1891 42.6213 29.4155 36.3277 29.4155C30.0341 29.4155 24.939 26.1891 24.939 22.2078C24.939 18.2264 30.0341 15 36.3277 15C42.6213 15 47.7165 18.2264 47.7165 22.2078Z" fill="#E55B2B"/>
<path d="M38.9116 18.5685C38.9104 18.3455 38.9769 18.1271 39.1026 17.941C39.2282 17.755 39.4075 17.6097 39.6176 17.5235C39.8276 17.4373 40.0591 17.4142 40.2826 17.457C40.5062 17.4998 40.7117 17.6066 40.8732 17.7639C41.0347 17.9212 41.1448 18.122 41.1897 18.3407C41.2346 18.5593 41.2122 18.7862 41.1253 18.9924C41.0384 19.1986 40.891 19.3749 40.7017 19.4989C40.5124 19.623 40.2897 19.6892 40.0619 19.6892C39.9112 19.69 39.7617 19.6616 39.6222 19.6056C39.4827 19.5496 39.3558 19.4672 39.2489 19.3631C39.142 19.2589 39.0572 19.1351 38.9993 18.9987C38.9414 18.8624 38.9116 18.7162 38.9116 18.5685Z" fill="#CA4B28"/>
<path d="M35.2495 21.0635C35.2495 20.8406 35.317 20.6228 35.4434 20.4376C35.5698 20.2523 35.7494 20.1079 35.9596 20.0227C36.1698 19.9374 36.4011 19.9151 36.6242 19.9585C36.8474 20.002 37.0523 20.1093 37.2132 20.2669C37.3741 20.4244 37.4836 20.6251 37.528 20.8437C37.5724 21.0622 37.5497 21.2887 37.4626 21.4946C37.3755 21.7004 37.2281 21.8764 37.0389 22.0002C36.8497 22.124 36.6273 22.19 36.3998 22.19C36.0947 22.19 35.8021 22.0714 35.5864 21.8601C35.3707 21.6488 35.2495 21.3623 35.2495 21.0635Z" fill="#CA4B28"/>
<path d="M31.4497 18.5685C31.4485 18.3452 31.5151 18.1266 31.6411 17.9404C31.767 17.7542 31.9466 17.6089 32.157 17.5229C32.3675 17.4369 32.5993 17.4141 32.823 17.4574C33.0467 17.5007 33.2522 17.6081 33.4134 17.766C33.5747 17.9239 33.6843 18.1252 33.7285 18.3443C33.7727 18.5634 33.7494 18.7904 33.6616 18.9965C33.5738 19.2025 33.4254 19.3784 33.2353 19.5018C33.0452 19.6251 32.822 19.6903 32.594 19.6892C32.2905 19.6892 31.9995 19.5711 31.7849 19.3609C31.5703 19.1508 31.4497 18.8657 31.4497 18.5685Z" fill="#CA4B28"/>
<path d="M63.0562 38.0861H56.6662H50.2822L42.3384 72.202L49.6619 78H56.6662H63.6765L71 72.202L63.0562 38.0861Z" fill="#F8AC55"/>
<path d="M53.9798 40.1327L49.6616 78H63.6762L59.358 39.9263L53.9798 40.1327Z" fill="#F3C73C"/>
<path d="M64.6883 38.6641C64.6883 40.6518 61.0747 42.2679 56.6662 42.2679C52.2576 42.2679 48.644 40.6518 48.644 38.6641C48.644 36.6763 52.2576 35.0602 56.6662 35.0602C61.0747 35.0602 64.6883 36.6704 64.6883 38.6641Z" fill="#CA4B28"/>
<path d="M68.0549 32.925C68.0549 36.9064 62.9537 40.1328 56.6661 40.1328C50.3785 40.1328 45.2773 36.9064 45.2773 32.925C45.2773 28.9437 50.3725 25.7173 56.6661 25.7173C62.9598 25.7173 68.0549 28.9437 68.0549 32.925Z" fill="#E55B2B"/>
<path d="M58.9727 31.9871C58.9727 31.7876 59.033 31.5926 59.1462 31.4268C59.2594 31.2609 59.4202 31.1316 59.6084 31.0553C59.7966 30.979 60.0037 30.959 60.2034 30.9979C60.4032 31.0368 60.5867 31.1329 60.7307 31.2739C60.8748 31.415 60.9729 31.5947 61.0126 31.7904C61.0523 31.986 61.0319 32.1888 60.954 32.3731C60.876 32.5574 60.744 32.7149 60.5747 32.8258C60.4053 32.9366 60.2062 32.9957 60.0025 32.9957C59.7294 32.9957 59.4674 32.8895 59.2743 32.7003C59.0811 32.5112 58.9727 32.2546 58.9727 31.9871Z" fill="#CA4B28"/>
<path d="M55.7027 28.1355C55.7015 27.9358 55.7609 27.7402 55.8733 27.5735C55.9857 27.4069 56.1462 27.2767 56.3342 27.1995C56.5223 27.1222 56.7296 27.1014 56.9297 27.1396C57.1299 27.1779 57.314 27.2735 57.4586 27.4143C57.6032 27.5551 57.7019 27.7348 57.7422 27.9306C57.7824 28.1264 57.7623 28.3295 57.6846 28.5142C57.6068 28.6988 57.4748 28.8567 57.3053 28.9678C57.1358 29.0789 56.9365 29.1382 56.7325 29.1382C56.4604 29.1382 56.1994 29.0328 56.0064 28.8449C55.8135 28.657 55.7042 28.402 55.7027 28.1355Z" fill="#CA4B28"/>
<path d="M52.2998 31.9871C52.2998 31.7876 52.3602 31.5926 52.4734 31.4268C52.5865 31.2609 52.7474 31.1316 52.9356 31.0553C53.1237 30.979 53.3308 30.959 53.5306 30.9979C53.7303 31.0368 53.9139 31.1329 54.0579 31.2739C54.2019 31.415 54.3 31.5947 54.3398 31.7904C54.3795 31.986 54.3591 32.1888 54.2812 32.3731C54.2032 32.5574 54.0712 32.7149 53.9018 32.8258C53.7325 32.9366 53.5334 32.9957 53.3297 32.9957C53.1944 32.9957 53.0605 32.9697 52.9356 32.919C52.8106 32.8683 52.6971 32.794 52.6014 32.7003C52.5058 32.6067 52.43 32.4955 52.3782 32.3731C52.3265 32.2507 52.2998 32.1196 52.2998 31.9871Z" fill="#CA4B28"/>
<path d="M51.0167 31.3738C51.0179 31.5738 50.9584 31.7696 50.8457 31.9364C50.733 32.1031 50.5722 32.2333 50.3838 32.3104C50.1954 32.3875 49.9878 32.4079 49.7874 32.3692C49.5871 32.3305 49.4031 32.2343 49.2587 32.0929C49.1143 31.9515 49.0161 31.7712 48.9765 31.575C48.937 31.3788 48.9579 31.1755 49.0366 30.991C49.1153 30.8065 49.2482 30.649 49.4185 30.5386C49.5888 30.4282 49.7887 30.3699 49.9929 30.3711C50.2639 30.3727 50.5235 30.4788 50.7151 30.6665C50.9068 30.8542 51.0152 31.1084 51.0167 31.3738Z" fill="#CA4B28"/>
<path d="M54.2931 29.1382C54.2943 29.338 54.2349 29.5335 54.1225 29.7002C54.01 29.8668 53.8496 29.997 53.6615 30.0743C53.4735 30.1515 53.2662 30.1723 53.066 30.1341C52.8659 30.0958 52.6818 30.0002 52.5372 29.8594C52.3925 29.7186 52.2939 29.5389 52.2536 29.3431C52.2134 29.1473 52.2334 28.9442 52.3112 28.7595C52.389 28.5749 52.521 28.417 52.6904 28.3059C52.8599 28.1948 53.0593 28.1355 53.2632 28.1355C53.3982 28.1347 53.532 28.1601 53.6569 28.2101C53.7818 28.2602 53.8954 28.3339 53.9911 28.4271C54.0868 28.5203 54.1628 28.6311 54.2146 28.7531C54.2664 28.8752 54.2931 29.006 54.2931 29.1382Z" fill="#CA4B28"/>
<path d="M57.6779 31.3737C57.6791 31.5734 57.6197 31.769 57.5072 31.9356C57.3948 32.1023 57.2344 32.2325 57.0463 32.3097C56.8582 32.387 56.651 32.4078 56.4508 32.3695C56.2506 32.3313 56.0666 32.2357 55.9219 32.0949C55.7773 31.954 55.6786 31.7743 55.6384 31.5785C55.5982 31.3827 55.6182 31.1796 55.696 30.995C55.7737 30.8103 55.9057 30.6525 56.0752 30.5414C56.2447 30.4303 56.444 30.371 56.648 30.371C56.9196 30.3725 57.1798 30.4784 57.3724 30.666C57.565 30.8535 57.6747 31.1077 57.6779 31.3737Z" fill="#CA4B28"/>
<path d="M60.966 29.1382C60.9672 29.3382 60.9076 29.534 60.7949 29.7008C60.6822 29.8676 60.5214 29.9977 60.333 30.0748C60.1446 30.1519 59.937 30.1724 59.7367 30.1336C59.5364 30.0949 59.3523 29.9987 59.2079 29.8573C59.0635 29.7159 58.9653 29.5356 58.9257 29.3394C58.8862 29.1432 58.9071 28.9399 58.9858 28.7554C59.0645 28.5709 59.1974 28.4134 59.3677 28.303C59.538 28.1926 59.7379 28.1343 59.9421 28.1355C60.2137 28.1355 60.4741 28.2412 60.6661 28.4292C60.8581 28.6173 60.966 28.8723 60.966 29.1382Z" fill="#CA4B28"/>
<path d="M64.3692 31.3738C64.38 31.5123 64.3616 31.6516 64.3149 31.7828C64.2682 31.914 64.1943 32.0343 64.0979 32.1363C64.0015 32.2382 63.8846 32.3195 63.7546 32.3751C63.6246 32.4308 63.4843 32.4595 63.3424 32.4595C63.2005 32.4595 63.0601 32.4308 62.9301 32.3751C62.8001 32.3195 62.6832 32.2382 62.5868 32.1363C62.4904 32.0343 62.4165 31.914 62.3698 31.7828C62.3232 31.6516 62.3047 31.5123 62.3155 31.3738C62.3353 31.1204 62.4521 30.8836 62.6425 30.7109C62.8329 30.5382 63.0829 30.4423 63.3424 30.4423C63.6019 30.4423 63.8518 30.5382 64.0422 30.7109C64.2326 30.8836 64.3494 31.1204 64.3692 31.3738Z" fill="#CA4B28"/>
</g>
<defs>
<clipPath id="clip0_117_507">
<rect width="49" height="63" fill="white" transform="translate(22 15)"/>
</clipPath>
</defs>
</svg>
