<svg width="93" height="93" viewBox="0 0 93 93" fill="none" xmlns="http://www.w3.org/2000/svg">
<rect width="93" height="93" rx="14" fill="#F5F6FA"/>
<g clip-path="url(#clip0_117_488)">
<path d="M74.164 55.7518C72.2659 55.7141 70.4213 55.1239 68.861 54.055C67.3008 52.9861 66.0943 51.4861 65.3926 49.7428C64.691 47.9994 64.5253 46.0902 64.9164 44.2543C65.3075 42.4183 66.238 40.7372 67.5913 39.4214C68.9447 38.1056 70.6607 37.2136 72.5246 36.8572C74.3884 36.5007 76.3173 36.6956 78.0697 37.4174C79.822 38.1392 81.3199 39.3559 82.3758 40.9151C83.4318 42.4743 83.9988 44.3067 84.0059 46.1829C83.9962 47.4501 83.7339 48.7029 83.2339 49.8698C82.7339 51.0368 82.0061 52.0948 81.092 52.9835C80.1779 53.8722 79.0956 54.5742 77.9068 55.0492C76.7181 55.5242 75.4462 55.7629 74.164 55.7518ZM74.164 40.2446C72.9761 40.2811 71.8254 40.663 70.856 41.3426C69.8866 42.0221 69.1414 42.969 68.7138 44.065C68.2861 45.1609 68.195 46.3571 68.4517 47.5039C68.7085 48.6507 69.3017 49.6973 70.1572 50.5126C71.0128 51.328 72.0926 51.8759 73.2616 52.0879C74.4306 52.2998 75.6369 52.1664 76.7295 51.7043C77.8222 51.2422 78.7527 50.4719 79.4047 49.4898C80.0566 48.5077 80.4011 47.3575 80.3949 46.1829C80.3605 44.5794 79.6863 43.0544 78.5192 41.94C77.3521 40.8256 75.7867 40.2121 74.164 40.2333V40.2446Z" fill="#F3C73C"/>
<path d="M73.1842 24H20.2782C19.02 24 18 25.008 18 26.2515V65.7485C18 66.992 19.02 68 20.2782 68H73.1842C74.4424 68 75.4624 66.992 75.4624 65.7485V26.2515C75.4624 25.008 74.4424 24 73.1842 24Z" fill="#F8AC55"/>
<path d="M69.6015 26.9833H23.8549C22.5967 26.9833 21.5767 27.9913 21.5767 29.2348V62.7653C21.5767 64.0088 22.5967 65.0168 23.8549 65.0168H69.6015C70.8597 65.0168 71.8797 64.0088 71.8797 62.7653V29.2348C71.8797 27.9913 70.8597 26.9833 69.6015 26.9833Z" fill="#F3C73C"/>
<path d="M67.3517 29.3867H26.1103C24.852 29.3867 23.832 30.3948 23.832 31.6382V60.3561C23.832 61.5996 24.852 62.6076 26.1103 62.6076H67.3517C68.6099 62.6076 69.6299 61.5996 69.6299 60.3561V31.6382C69.6299 30.3948 68.6099 29.3867 67.3517 29.3867Z" fill="#F8AC55"/>
<path d="M43.4419 39.0457L53.0332 45.9972L43.4419 52.9543V39.0457Z" fill="#2C47D1"/>
</g>
<defs>
<clipPath id="clip0_117_488">
<rect width="66" height="44" fill="white" transform="translate(18 24)"/>
</clipPath>
</defs>
</svg>
