<svg width="93" height="93" viewBox="0 0 93 93" fill="none" xmlns="http://www.w3.org/2000/svg">
<rect width="93" height="93" rx="14" fill="#F5F6FA"/>
<g clip-path="url(#clip0_115_461)">
<path d="M69.0002 14H24.5435V72.9472H69.0002V14Z" fill="#2C47D1"/>
<path d="M67.8005 17.1207H26.5059V71.2786H67.8005V17.1207Z" fill="#B2502A"/>
<path d="M60.3288 66.823L56.6949 67.83L53.0669 66.823V78L56.6949 74.3524L60.3288 78V66.823Z" fill="#F3C73C"/>
<path d="M66.3853 15.9204H26.5059V69.5162H66.3853V15.9204Z" fill="#E55B2B"/>
<path d="M27.4084 23.2684H30.0989C30.3012 23.2684 30.4952 23.1875 30.6383 23.0437C30.7814 22.8999 30.8617 22.7048 30.8617 22.5014V19.287C30.8617 19.0836 30.7814 18.8885 30.6383 18.7447C30.4952 18.6008 30.3012 18.52 30.0989 18.52H27.4084C27.2061 18.52 27.012 18.6008 26.869 18.7447C26.7259 18.8885 26.6455 19.0836 26.6455 19.287V22.5014C26.6455 22.7048 26.7259 22.8999 26.869 23.0437C27.012 23.1875 27.2061 23.2684 27.4084 23.2684Z" fill="#B2502A"/>
<path d="M27.4084 32.1853H30.0989C30.3012 32.1853 30.4952 32.1045 30.6383 31.9607C30.7814 31.8169 30.8617 31.6218 30.8617 31.4184V28.204C30.8617 28.0006 30.7814 27.8055 30.6383 27.6617C30.4952 27.5178 30.3012 27.437 30.0989 27.437H27.4084C27.2061 27.437 27.012 27.5178 26.869 27.6617C26.7259 27.8055 26.6455 28.0006 26.6455 28.204V31.4184C26.6455 31.6218 26.7259 31.8169 26.869 31.9607C27.012 32.1045 27.2061 32.1853 27.4084 32.1853Z" fill="#B2502A"/>
<path d="M27.4084 41.1023H30.0989C30.3002 41.1023 30.4933 41.0223 30.6362 40.8798C30.7791 40.7372 30.8602 40.5436 30.8617 40.3412V37.121C30.8602 36.9186 30.7791 36.725 30.6362 36.5824C30.4933 36.4399 30.3002 36.3599 30.0989 36.3599H27.4084C27.2071 36.3599 27.0139 36.4399 26.871 36.5824C26.7281 36.725 26.647 36.9186 26.6455 37.121V40.3412C26.647 40.5436 26.7281 40.7372 26.871 40.8798C27.0139 41.0223 27.2071 41.1023 27.4084 41.1023Z" fill="#B2502A"/>
<path d="M27.4084 50.0252H30.0989C30.2 50.0252 30.3002 50.005 30.3935 49.9657C30.4868 49.9264 30.5715 49.8689 30.6425 49.7964C30.7135 49.7239 30.7694 49.638 30.807 49.5436C30.8447 49.4492 30.8633 49.3482 30.8617 49.2465V46.0321C30.8617 45.8287 30.7814 45.6336 30.6383 45.4898C30.4952 45.3459 30.3012 45.2651 30.0989 45.2651H27.4084C27.2061 45.2651 27.012 45.3459 26.869 45.4898C26.7259 45.6336 26.6455 45.8287 26.6455 46.0321V49.2465C26.6455 49.4499 26.7259 49.645 26.869 49.7888C27.012 49.9327 27.2061 50.0135 27.4084 50.0135" fill="#B2502A"/>
<path d="M27.4084 58.9422H30.0989C30.3012 58.9422 30.4952 58.8614 30.6383 58.7175C30.7814 58.5737 30.8617 58.3786 30.8617 58.1752V54.9608C30.8617 54.7574 30.7814 54.5623 30.6383 54.4185C30.4952 54.2747 30.3012 54.1938 30.0989 54.1938H27.4084C27.2061 54.1938 27.012 54.2747 26.869 54.4185C26.7259 54.5623 26.6455 54.7574 26.6455 54.9608V58.1752C26.6455 58.3786 26.7259 58.5737 26.869 58.7175C27.012 58.8614 27.2061 58.9422 27.4084 58.9422Z" fill="#B2502A"/>
<path d="M27.4084 67.8593H30.0989C30.3002 67.8593 30.4933 67.7793 30.6362 67.6367C30.7791 67.4941 30.8602 67.3006 30.8617 67.0982V63.8838C30.8617 63.6804 30.7814 63.4853 30.6383 63.3415C30.4952 63.1976 30.3012 63.1168 30.0989 63.1168H27.4084C27.2061 63.1168 27.012 63.1976 26.869 63.3415C26.7259 63.4853 26.6455 63.6804 26.6455 63.8838V67.104C26.647 67.3064 26.7281 67.5 26.871 67.6426C27.0139 67.7852 27.2071 67.8652 27.4084 67.8652" fill="#B2502A"/>
<path d="M28.2876 22.7823H23.6287C23.4743 22.7823 23.3262 22.7206 23.217 22.6108C23.1077 22.501 23.0464 22.3521 23.0464 22.1968V19.6382C23.0464 19.4829 23.1077 19.334 23.217 19.2242C23.3262 19.1144 23.4743 19.0527 23.6287 19.0527H28.2876C28.442 19.0527 28.5901 19.1144 28.6993 19.2242C28.8086 19.334 28.8699 19.4829 28.8699 19.6382V22.1968C28.8699 22.3521 28.8086 22.501 28.6993 22.6108C28.5901 22.7206 28.442 22.7823 28.2876 22.7823Z" fill="#1B38CC"/>
<path d="M28.2876 31.6818H23.6287C23.4743 31.6818 23.3262 31.6202 23.217 31.5104C23.1077 31.4006 23.0464 31.2516 23.0464 31.0964V28.5378C23.0464 28.3825 23.1077 28.2336 23.217 28.1238C23.3262 28.014 23.4743 27.9523 23.6287 27.9523H28.2876C28.442 27.9523 28.5901 28.014 28.6993 28.1238C28.8086 28.2336 28.8699 28.3825 28.8699 28.5378V31.0964C28.8699 31.2516 28.8086 31.4006 28.6993 31.5104C28.5901 31.6202 28.442 31.6818 28.2876 31.6818Z" fill="#1B38CC"/>
<path d="M28.2876 40.6223H23.6287C23.4743 40.6223 23.3262 40.5606 23.217 40.4508C23.1077 40.341 23.0464 40.1921 23.0464 40.0368V37.4723C23.0464 37.317 23.1077 37.1681 23.217 37.0583C23.3262 36.9485 23.4743 36.8868 23.6287 36.8868H28.2876C28.442 36.8868 28.5901 36.9485 28.6993 37.0583C28.8086 37.1681 28.8699 37.317 28.8699 37.4723V40.0368C28.8699 40.1921 28.8086 40.341 28.6993 40.4508C28.5901 40.5606 28.442 40.6223 28.2876 40.6223Z" fill="#1B38CC"/>
<path d="M28.2876 49.5393H23.6287C23.4743 49.5393 23.3262 49.4776 23.217 49.3678C23.1077 49.258 23.0464 49.1091 23.0464 48.9538V46.3893C23.0464 46.234 23.1077 46.0851 23.217 45.9753C23.3262 45.8655 23.4743 45.8038 23.6287 45.8038H28.2876C28.442 45.8038 28.5901 45.8655 28.6993 45.9753C28.8086 46.0851 28.8699 46.234 28.8699 46.3893V48.9538C28.8699 49.1091 28.8086 49.258 28.6993 49.3678C28.5901 49.4776 28.442 49.5393 28.2876 49.5393Z" fill="#1B38CC"/>
<path d="M28.2876 58.4562H23.6287C23.4743 58.4562 23.3262 58.3946 23.217 58.2848C23.1077 58.175 23.0464 58.026 23.0464 57.8708V55.3063C23.0464 55.151 23.1077 55.0021 23.217 54.8923C23.3262 54.7825 23.4743 54.7208 23.6287 54.7208H28.2876C28.442 54.7208 28.5901 54.7825 28.6993 54.8923C28.8086 55.0021 28.8699 55.151 28.8699 55.3063V57.8708C28.8699 58.026 28.8086 58.175 28.6993 58.2848C28.5901 58.3946 28.442 58.4562 28.2876 58.4562Z" fill="#1B38CC"/>
<path d="M28.2876 66.8112H23.6287C23.4743 66.8112 23.3262 66.7495 23.217 66.6397C23.1077 66.5299 23.0464 66.381 23.0464 66.2257V63.6496C23.0464 63.4943 23.1077 63.3454 23.217 63.2356C23.3262 63.1258 23.4743 63.0641 23.6287 63.0641H28.2876C28.442 63.0641 28.5901 63.1258 28.6993 63.2356C28.8086 63.3454 28.8699 63.4943 28.8699 63.6496V66.2257C28.8699 66.381 28.8086 66.5299 28.6993 66.6397C28.5901 66.7495 28.442 66.8112 28.2876 66.8112Z" fill="#1B38CC"/>
</g>
<defs>
<clipPath id="clip0_115_461">
<rect width="46" height="64" fill="white" transform="translate(23 14)"/>
</clipPath>
</defs>
</svg>
