<svg width="400" height="400" viewBox="0 0 400 400" fill="none" xmlns="http://www.w3.org/2000/svg">
<path d="M200 350C117.157 350 50 282.843 50 200C50 117.157 117.157 50 200 50C282.843 50 350 117.157 350 200C350 282.843 282.843 350 200 350Z" fill="white"/>
<path d="M246.36 211.23C241.67 217.43 234.35 221.5 226.11 221.5C212.02 221.5 200.58 210.06 200.58 195.97C200.58 181.88 212.02 170.44 226.11 170.44C234.35 170.44 241.67 174.51 246.36 180.71L274.65 152.42C262.48 136.19 243.08 126.54 221.21 126.54C183.07 126.54 152.16 157.45 152.16 195.59C152.16 233.73 183.07 264.64 221.21 264.64C243.08 264.64 262.48 254.99 274.65 238.76L246.36 211.23Z" fill="url(#paint0_linear)"/>
<defs>
<linearGradient id="paint0_linear" x1="152.16" y1="126.54" x2="274.65" y2="264.64" gradientUnits="userSpaceOnUse">
<stop stop-color="#4285F4"/>
<stop offset="0.33" stop-color="#EA4335"/>
<stop offset="0.66" stop-color="#FBBC05"/>
<stop offset="1" stop-color="#34A853"/>
</linearGradient>
</defs>
</svg>