<svg xmlns="http://www.w3.org/2000/svg" viewBox="0 0 24 24"><path fill="#A259FF" d="M8 2a4 4 0 00-4 4 4 4 0 000 8 4 4 0 004 4v-4a4 4 0 000-8V2z"/><path fill="#F24E1E" d="M4 6a4 4 0 014-4h4v8H8a4 4 0 01-4-4z"/><path fill="#FF7262" d="M12 2h4a4 4 0 010 8h-4V2z"/><path fill="#1ABCFE" d="M16 10a4 4 0 110 8 4 4 0 010-8z"/><path fill="#0ACF83" d="M8 18a4 4 0 004-4v-4H8a4 4 0 000 8z"/><g transform="translate(14 14)"><path d="M5 0L3.5 3 0 3.5 2.5 5.5 2 9l3-2 3 2-.5-3.5L10 3.5 6.5 3z" fill="#FFD700"/></g></svg>