<svg role="img" viewBox="0 0 24 24" xmlns="http://www.w3.org/2000/svg"><path d="M7.603 12.238c0 2.3 1.088 4.09 2.648 4.09 1.218 0 2.076-.842 2.076-2.04 0-1.2-.858-2.04-2.076-2.04-.39 0-.72.1-.99.27.27-1.56 1.38-3.12 3.12-3.12.48 0 .87-.39.87-.87s-.39-.87-.87-.87c-2.88 0-4.778 2.28-4.778 4.58zm8.4-4.58c-2.88 0-4.778 2.28-4.778 4.58 0 2.3 1.088 4.09 2.648 4.09 1.218 0 2.076-.842 2.076-2.04 0-1.2-.858-2.04-2.076-2.04-.39 0-.72.1-.99.27.27-1.56 1.38-3.12 3.12-3.12.48 0 .87-.39.87-.87s-.39-.87-.87-.87z"/></svg>
